<svg xmlns="http://www.w3.org/2000/svg" viewBox="0 0 400 400" id="Artificial-Intelligence--Streamline-Free-Illustrations" height="200" width="200">
  <desc>
    Artificial Intelligence Streamline Illustration: https://streamlinehq.com
  </desc>
  <g transform="scale(6.25)">
    <g id="Artificial_intelligence">
      <path d="M14.82858 57a3 3 0 0 1-2.12132-.87868l-6.82858-6.82858A3 3 0 0 1 5 47.17142V16.82858a3 3 0 0 1 .87868-2.12132l6.82858-6.82858A3 3 0 0 1 14.82858 7h34.34284a3 3 0 0 1 2.12132.87868l6.82858 6.82858A3 3 0 0 1 59 16.82858v30.34284a3 3 0 0 1-.87868 2.12132l-6.82858 6.82858A3 3 0 0 1 49.17142 57Z" stroke-linecap="round" stroke-linejoin="round" stroke="#6083ec" fill="#469bea"></path>
      <path d="m5.5 15.75 3.5 0" fill="none" stroke-linecap="round" stroke-linejoin="round" stroke="#6083ec"></path>
      <path d="m5.5 48.25 3.5 0" fill="none" stroke-linecap="round" stroke-linejoin="round" stroke="#6083ec"></path>
      <path d="M57 31h6v2h-6Z" fill="#6083ec" stroke-linecap="round" stroke-linejoin="round" stroke="#6083ec"></path>
      <path d="M57 22h6v2h-6Z" fill="#6083ec" stroke-linecap="round" stroke-linejoin="round" stroke="#6083ec"></path>
      <path d="M57 40h6v2h-6Z" fill="#6083ec" stroke-linecap="round" stroke-linejoin="round" stroke="#6083ec"></path>
      <path d="M1 31h6v2H1Z" fill="#6083ec" stroke-linecap="round" stroke-linejoin="round" stroke="#6083ec"></path>
      <path d="M1 22h6v2H1Z" fill="#6083ec" stroke-linecap="round" stroke-linejoin="round" stroke="#6083ec"></path>
      <path d="M1 40h6v2H1Z" fill="#6083ec" stroke-linecap="round" stroke-linejoin="round" stroke="#6083ec"></path>
      <path d="m33 1 0 6-2 0 0-6Z" fill="#6083ec" stroke-linecap="round" stroke-linejoin="round" stroke="#6083ec"></path>
      <path d="m42 1 0 6-2 0 0-6Z" fill="#6083ec" stroke-linecap="round" stroke-linejoin="round" stroke="#6083ec"></path>
      <path d="m24 1 0 6-2 0 0-6Z" fill="#6083ec" stroke-linecap="round" stroke-linejoin="round" stroke="#6083ec"></path>
      <path d="m33 57 0 6-2 0 0-6Z" fill="#6083ec" stroke-linecap="round" stroke-linejoin="round" stroke="#6083ec"></path>
      <path d="m42 57 0 6-2 0 0-6Z" fill="#6083ec" stroke-linecap="round" stroke-linejoin="round" stroke="#6083ec"></path>
      <path d="m24 57 0 6-2 0 0-6Z" fill="#6083ec" stroke-linecap="round" stroke-linejoin="round" stroke="#6083ec"></path>
      <path d="M18.82858 57a3 3 0 0 1-2.12132-.87868l-6.82858-6.82858A3 3 0 0 1 9 47.17142V16.82858a3 3 0 0 1 .87868-2.12132l6.82858-6.82858A3 3 0 0 1 18.82858 7h30.34284a3 3 0 0 1 2.12132.87868l6.82858 6.82858A3 3 0 0 1 59 16.82858v30.34284a3 3 0 0 1-.87868 2.12132l-6.82858 6.82858A3 3 0 0 1 49.17142 57Z" fill="#f4f4f4" stroke-linecap="round" stroke-linejoin="round" stroke="#6083ec"></path>
      <path d="M47.5144 52a2 2 0 0 0 1.41415-.58573l4.4856-4.48521A2 2 0 0 0 54 45.51478V18.48522a2 2 0 0 0-.58585-1.41428l-4.4856-4.48521A2 2 0 0 0 47.5144 12H20.4856a2 2 0 0 0-1.41415.58573l-4.4856 4.48521A2 2 0 0 0 14 18.48522v27.02956a2 2 0 0 0 .58585 1.41428l4.4856 4.48521A2 2 0 0 0 20.4856 52Z" fill="#139fbb" stroke-linecap="round" stroke-linejoin="round" stroke="#6083ec"></path>
      <path d="M39 37h10v6H39Z" fill="#3572bf" stroke="#3572bf" stroke-linecap="round" stroke-linejoin="round"></path>
      <path d="m41 38.875 6 0" stroke="#139fbb" fill="none" stroke-linecap="round" stroke-linejoin="round"></path>
      <path d="m47 41.125-6 0" stroke="#139fbb" fill="none" stroke-linecap="round" stroke-linejoin="round"></path>
      <path d="M19 19h12v10H19Z" fill="#3572bf" stroke="#3572bf" stroke-linecap="round" stroke-linejoin="round"></path>
      <path d="m21 21.5 8 0" stroke="#139fbb" fill="none" stroke-linecap="round" stroke-linejoin="round"></path>
      <path d="m21 24 8 0" stroke="#139fbb" fill="none" stroke-linecap="round" stroke-linejoin="round"></path>
      <path d="m29 26.5-8 0" stroke="#139fbb" fill="none" stroke-linecap="round" stroke-linejoin="round"></path>
      <path d="M21 44h4v3h-4Z" fill="#3572bf" stroke="#3572bf" stroke-linecap="round" stroke-linejoin="round"></path>
      <path d="M46 15h9s1 0 1 1v7s0 1-1 1h-9s-1 0-1-1v-7s0-1 1-1" fill="#a8ccf3" stroke-linecap="round" stroke-linejoin="round" stroke="#6083ec"></path>
      <path d="m48 18.25 5 0" stroke="#ffffff" fill="none" stroke-linecap="round" stroke-linejoin="round"></path>
      <path d="m53 20.75-5 0" stroke="#ffffff" fill="none" stroke-linecap="round" stroke-linejoin="round"></path>
      <path d="M13 35h6s1 0 1 1v5s0 1-1 1h-6s-1 0-1-1v-5s0-1 1-1" fill="#6c95ec" stroke-linecap="round" stroke-linejoin="round" stroke="#6083ec"></path>
      <path d="m14.5 37.375 3 0" stroke="#ffffff" fill="none" stroke-linecap="round" stroke-linejoin="round"></path>
      <path d="m17.5 39.625-3 0" stroke="#ffffff" fill="none" stroke-linecap="round" stroke-linejoin="round"></path>
      <path d="m40 40-12 0s-4 0-4-4l0-8s0-4 4-4l12 0s4 0 4 4l0 8s0 4-4 4" fill="#ffffff" stroke-linecap="round" stroke-linejoin="round" stroke="#6083ec"></path>
      <path d="m46 35-2 1 0-8 2 1z" fill="#bdd3ef" stroke-linecap="round" stroke-linejoin="round" stroke="#6083ec"></path>
      <path d="m24 36-2-1 0-6 2-1z" fill="#bdd3ef" stroke-linecap="round" stroke-linejoin="round" stroke="#6083ec"></path>
      <path d="m46 52-24 0 0 0 0-2a10 10 0 0 1 10-10l4 0a10 10 0 0 1 10 10z" fill="#ffffff" stroke-linecap="round" stroke-linejoin="round" stroke="#6083ec"></path>
      <path d="M30 47h8v2h-8Z" stroke="#351cb5" fill="#351cb5" stroke-linecap="round" stroke-linejoin="round"></path>
      <path d="M31 40h6l0 0v0a2 2 0 0 1-2 2h-2a2 2 0 0 1-2-2" fill="#351cb5" stroke-linecap="round" stroke-linejoin="round" stroke="#6083ec"></path>
      <path d="m38 29 0 2" fill="#ffffff" stroke-linecap="round" stroke-linejoin="round" stroke="#6083ec"></path>
      <path d="m30 31 0-2" fill="#ffffff" stroke-linecap="round" stroke-linejoin="round" stroke="#6083ec"></path>
      <path d="M40 32.75h1s.5 0 .5.5v.5s0 .5-.5.5h-1s-.5 0-.5-.5v-.5s0-.5.5-.5" fill="#2e89bf"></path>
      <path d="m28 34.25-1 0s-.5 0-.5-.5l0-.5s0-.5.5-.5l1 0s.5 0 .5.5l0 .5s0 .5-.5.5" fill="#2e89bf"></path>
      <path d="M42 42.01361V52h4v-2a9.974 9.974 0 0 0-4-7.98639" fill="#351cb5" stroke-linecap="round" stroke-linejoin="round" stroke="#6083ec"></path>
      <path d="M26 42.01361V52h-4v-2a9.974 9.974 0 0 1 4-7.98639" fill="#351cb5" stroke-linecap="round" stroke-linejoin="round" stroke="#6083ec"></path>
      <path d="M32 35a2 2 0 0 0 4 0" fill="none" stroke-linecap="round" stroke-linejoin="round" stroke="#6083ec"></path>
      <path d="M33 18a1 1 0 1 0 2 0 1 1 0 1 0-2 0" fill="#6083ec" stroke-linecap="round" stroke-linejoin="round" stroke="#6083ec"></path>
      <path d="m34 19 0 5" fill="none" stroke-linecap="round" stroke-linejoin="round" stroke="#6083ec"></path>
      <path d="M42 50h4v2h-4Z" fill="#351cb5" stroke-linecap="round" stroke-linejoin="round" stroke="#6083ec"></path>
      <path d="M22 50h4v2h-4Z" fill="#351cb5" stroke-linecap="round" stroke-linejoin="round" stroke="#6083ec"></path>
    </g>
  </g>
</svg>