<svg width="537" height="200" viewBox="0 0 537 200" fill="none" xmlns="http://www.w3.org/2000/svg">
<path d="M188.463 102.697C188.463 152.312 148.242 192.533 98.6273 192.533C49.0123 192.533 8.7915 152.312 8.7915 102.697C8.7915 53.0824 49.0123 12.8615 98.6273 12.8615C148.242 12.8615 188.463 53.0824 188.463 102.697Z" fill="#7DAEFF"/>
<path d="M185.735 102.697C185.735 150.805 146.735 189.805 98.6272 189.805C50.519 189.805 11.5197 150.805 11.5197 102.697C11.5197 54.5891 50.519 15.5897 98.6272 15.5897C146.735 15.5897 185.735 54.5891 185.735 102.697Z" fill="white"/>
<path d="M99.0095 28.841L144.407 107.472L99.0095 65.6717L53.6121 107.472L99.0095 28.841Z" fill="#3B82F6"/>
<path d="M98.8222 79.1178L137.017 115.591V174.605L98.8222 141.359L60.6274 174.605V115.591L98.8222 79.1178Z" fill="#0646AF"/>
<circle cx="31.0068" cy="45.2102" r="11.3025" fill="#0854CF"/>
<circle cx="60.6274" cy="22.6051" r="11.3025" fill="#0E55C9"/>
<circle cx="99.2119" cy="11.3025" r="11.3025" fill="#0646AF"/>
<circle cx="137.796" cy="22.6051" r="11.3025" fill="#0E55C9"/>
<circle cx="167.027" cy="49.1076" r="11.3025" fill="#0854CF"/>
<circle cx="186.904" cy="86.9127" r="11.3025" fill="#0458E0"/>
<circle cx="183.007" cy="132.123" r="11.3025" fill="#0060FD"/>
<circle cx="160.402" cy="166.031" r="11.3025" fill="#2477FF"/>
<circle cx="121.817" cy="188.636" r="11.3025" fill="#3B82F6"/>
<circle cx="74.6581" cy="188.636" r="11.3025" fill="#3B82F6"/>
<circle cx="32.9555" cy="163.302" r="11.3025" fill="#2477FF"/>
<circle cx="11.3025" cy="126.505" r="11.3025" fill="#0060FD"/>
<circle cx="11.3025" cy="82.709" r="11.3025" fill="#0458E0"/>
<path d="M238.993 133V47.624H259.729V82.184H291.089V47.624H311.697V133H291.089V99.08H259.729V133H238.993ZM329.868 133V47.624H371.468C381.111 47.624 388.663 49.8853 394.124 54.408C399.585 58.8453 402.316 65.6293 402.316 74.76C402.316 78.5147 401.548 82.2267 400.012 85.896C398.476 89.48 396.215 92.5947 393.228 95.24C390.241 97.8 386.487 99.464 381.964 100.232L380.684 93.192L406.668 133H380.3L358.924 95.752L368.14 103.56H350.604V133H329.868ZM350.604 88.328H368.012C371.681 88.328 374.583 87.3467 376.716 85.384C378.849 83.4213 379.916 80.1787 379.916 75.656C379.916 71.7307 378.935 68.744 376.972 66.696C375.095 64.648 372.407 63.624 368.908 63.624H350.604V88.328ZM420.618 133V47.624H441.738L471.05 88.456L459.786 88.84L490.122 47.624H510.73V133H489.994V63.24L494.09 69.896L464.906 108.68L435.978 69.256L440.458 66.184V133H420.618Z" fill="url(#paint0_linear_46_51)"/>
<path d="M239.233 179.672C236.097 179.672 233.345 179.112 230.977 177.992C228.641 176.872 226.817 175.096 225.505 172.664C224.225 170.2 223.585 166.984 223.585 163.016C223.585 159.112 224.225 155.928 225.505 153.464C226.817 151 228.641 149.192 230.977 148.04C233.345 146.856 236.097 146.264 239.233 146.264C241.249 146.264 243.217 146.472 245.137 146.888C247.057 147.304 248.897 147.88 250.657 148.616V155.672C248.737 154.68 246.945 153.88 245.281 153.272C243.649 152.664 241.953 152.36 240.193 152.36C238.369 152.36 236.801 152.68 235.489 153.32C234.209 153.96 233.233 155.064 232.561 156.632C231.889 158.168 231.553 160.28 231.553 162.968C231.553 165.624 231.889 167.736 232.561 169.304C233.265 170.84 234.241 171.944 235.489 172.616C236.737 173.288 238.193 173.624 239.857 173.624C240.721 173.624 241.521 173.576 242.257 173.48C243.025 173.352 243.697 173.144 244.273 172.856V167.192H238.993V161.144H252.049V176.216C250.065 177.304 247.985 178.152 245.809 178.76C243.665 179.368 241.473 179.672 239.233 179.672ZM258.628 179V157.256C259.076 156.872 259.876 156.44 261.028 155.96C262.18 155.448 263.492 155 264.964 154.616C266.468 154.2 267.972 153.992 269.476 153.992C270.98 153.992 272.164 154.104 273.028 154.328C273.892 154.552 274.548 154.84 274.996 155.192V160.424C274.452 160.296 273.764 160.2 272.932 160.136C272.1 160.072 271.236 160.04 270.34 160.04C269.444 160.008 268.596 160.008 267.796 160.04C266.996 160.072 266.324 160.136 265.78 160.232V179H258.628ZM289.259 179.72C285.163 179.72 282.075 178.632 279.995 176.456C277.947 174.248 276.923 171.016 276.923 166.76C276.923 162.184 277.963 158.904 280.043 156.92C282.155 154.904 285.227 153.896 289.259 153.896C291.979 153.896 294.251 154.36 296.075 155.288C297.931 156.184 299.323 157.576 300.251 159.464C301.211 161.352 301.691 163.784 301.691 166.76C301.691 171.016 300.619 174.248 298.475 176.456C296.331 178.632 293.259 179.72 289.259 179.72ZM289.259 174.008C290.443 174.008 291.419 173.736 292.187 173.192C292.987 172.616 293.579 171.8 293.963 170.744C294.379 169.656 294.587 168.328 294.587 166.76C294.587 164.968 294.379 163.56 293.963 162.536C293.579 161.48 292.987 160.728 292.187 160.28C291.387 159.8 290.411 159.56 289.259 159.56C288.043 159.56 287.051 159.8 286.283 160.28C285.515 160.76 284.939 161.528 284.555 162.584C284.203 163.608 284.027 165 284.027 166.76C284.027 169.192 284.443 171.016 285.275 172.232C286.139 173.416 287.467 174.008 289.259 174.008ZM311.225 179L303.065 154.712H310.793L316.217 174.344L313.961 174.44L319.097 154.712H324.377L329.417 173.864H327.641L332.825 154.712H340.409L332.345 179H325.865L321.065 163.304L322.265 163.448L317.705 179H311.225ZM344.928 179V155.048H352.08L352.128 179H344.928ZM344.784 151.4V145.88H352.176V151.4H344.784ZM360.342 179V160.184H356.742V154.712H360.39V154.136C360.39 152.568 360.55 151.224 360.87 150.104C361.19 148.984 361.638 148.056 362.214 147.32C362.79 146.552 363.462 145.96 364.23 145.544C364.998 145.128 365.846 144.84 366.774 144.68C367.702 144.488 368.662 144.392 369.654 144.392C370.166 144.392 370.726 144.44 371.334 144.536C371.942 144.6 372.438 144.712 372.822 144.872V151.208C372.534 150.856 372.214 150.584 371.862 150.392C371.51 150.2 371.03 150.104 370.422 150.104C370.006 150.104 369.622 150.152 369.27 150.248C368.918 150.344 368.614 150.504 368.358 150.728C368.102 150.952 367.894 151.272 367.734 151.688C367.606 152.104 367.542 152.632 367.542 153.272V154.712H372.822V160.184H367.494V179H360.342ZM382.689 188.408C381.889 188.408 381.105 188.328 380.337 188.168C379.569 188.008 378.913 187.8 378.369 187.544V181.736C378.881 181.928 379.361 182.056 379.809 182.12C380.257 182.216 380.721 182.264 381.201 182.264C382.001 182.264 382.689 182.072 383.265 181.688C383.873 181.336 384.369 180.712 384.753 179.816C385.137 178.952 385.441 177.768 385.665 176.264L385.809 180.344L375.393 154.712H383.601L389.121 171.752H388.401L393.873 154.712H401.553L392.001 179.384C391.137 181.624 390.193 183.4 389.169 184.712C388.177 186.024 387.137 186.968 386.049 187.544C384.961 188.12 383.841 188.408 382.689 188.408ZM419.368 179V146.984H427.144V179H419.368ZM433.706 156.776C434.314 156.456 435.114 156.136 436.106 155.816C437.098 155.464 438.186 155.16 439.37 154.904C440.554 154.648 441.738 154.44 442.922 154.28C444.138 154.12 445.258 154.04 446.282 154.04C448.458 154.04 450.314 154.328 451.85 154.904C453.386 155.448 454.554 156.344 455.354 157.592C456.186 158.84 456.602 160.536 456.602 162.68V179H449.45V164.12C449.45 163.512 449.354 162.952 449.162 162.44C449.002 161.928 448.746 161.496 448.394 161.144C448.042 160.76 447.562 160.472 446.954 160.28C446.346 160.056 445.61 159.944 444.746 159.944C444.01 159.944 443.274 160.04 442.538 160.232C441.802 160.392 441.242 160.568 440.858 160.76V179H433.706V156.776ZM474.572 179.72C472.684 179.72 470.94 179.512 469.34 179.096C467.772 178.68 466.412 177.992 465.26 177.032C464.108 176.04 463.196 174.696 462.524 173C461.884 171.304 461.564 169.192 461.564 166.664C461.564 162.728 462.524 159.624 464.444 157.352C466.396 155.08 469.308 153.944 473.18 153.944C473.692 153.944 474.364 153.992 475.196 154.088C476.028 154.152 476.892 154.344 477.788 154.664C478.684 154.984 479.484 155.528 480.188 156.296L478.748 158.504V144.728H485.852V172.664C485.852 173.848 485.532 174.888 484.892 175.784C484.252 176.648 483.388 177.368 482.3 177.944C481.244 178.52 480.044 178.952 478.7 179.24C477.356 179.56 475.98 179.72 474.572 179.72ZM474.86 173.72C476.012 173.72 476.94 173.576 477.644 173.288C478.38 172.968 478.748 172.504 478.748 171.896V160.712C478.172 160.392 477.548 160.152 476.876 159.992C476.236 159.8 475.612 159.704 475.004 159.704C473.66 159.704 472.524 159.928 471.596 160.376C470.668 160.824 469.964 161.576 469.484 162.632C469.036 163.688 468.812 165.112 468.812 166.904C468.812 168.312 469.004 169.528 469.388 170.552C469.772 171.544 470.396 172.328 471.26 172.904C472.156 173.448 473.356 173.72 474.86 173.72ZM492.35 179V155.048H499.502L499.55 179H492.35ZM492.206 151.4V145.88H499.598V151.4H492.206ZM515.3 179.72C513.828 179.72 512.436 179.576 511.124 179.288C509.844 179.032 508.708 178.6 507.716 177.992C506.756 177.352 506.004 176.504 505.46 175.448C504.916 174.36 504.644 173.016 504.644 171.416C504.644 169.912 504.948 168.6 505.556 167.48C506.196 166.36 507.156 165.496 508.436 164.888C509.716 164.28 511.332 163.976 513.284 163.976C514.372 163.976 515.428 164.088 516.452 164.312C517.476 164.536 518.388 164.84 519.188 165.224C520.02 165.608 520.676 166.024 521.156 166.472L521.444 169.928C520.804 169.544 520.036 169.24 519.14 169.016C518.244 168.792 517.284 168.68 516.26 168.68C514.692 168.68 513.54 168.92 512.804 169.4C512.1 169.848 511.748 170.568 511.748 171.56C511.748 172.168 511.924 172.712 512.276 173.192C512.628 173.672 513.092 174.04 513.668 174.296C514.276 174.552 514.9 174.68 515.54 174.68C517.172 174.68 518.308 174.568 518.948 174.344C519.62 174.12 519.956 173.672 519.956 173V164.072C519.956 162.6 519.476 161.544 518.516 160.904C517.588 160.232 516.26 159.896 514.532 159.896C513.124 159.896 511.7 160.152 510.26 160.664C508.852 161.144 507.7 161.736 506.804 162.44V156.104C507.636 155.592 508.916 155.112 510.644 154.664C512.404 154.216 514.372 153.992 516.548 153.992C517.316 153.992 518.164 154.056 519.092 154.184C520.02 154.312 520.948 154.552 521.876 154.904C522.804 155.224 523.652 155.704 524.42 156.344C525.22 156.984 525.86 157.8 526.34 158.792C526.82 159.784 527.06 161.016 527.06 162.488L527.012 173.96C527.012 175.336 526.548 176.456 525.62 177.32C524.692 178.152 523.348 178.76 521.588 179.144C519.86 179.528 517.764 179.72 515.3 179.72Z" fill="url(#paint1_linear_46_51)"/>
<defs>
<linearGradient id="paint0_linear_46_51" x1="375.405" y1="10" x2="375.405" y2="139" gradientUnits="userSpaceOnUse">
<stop stop-color="#05317B"/>
<stop offset="1" stop-color="#73A8FF"/>
</linearGradient>
<linearGradient id="paint1_linear_46_51" x1="375.905" y1="133" x2="375.905" y2="189" gradientUnits="userSpaceOnUse">
<stop stop-color="#73A8FF"/>
<stop offset="1" stop-color="#05317B"/>
</linearGradient>
</defs>
</svg>
