<svg width="227" height="229" viewBox="0 0 227 229" fill="none" xmlns="http://www.w3.org/2000/svg">
<path d="M215.751 117.567C215.751 174.366 169.706 220.41 112.908 220.41C56.1089 220.41 10.0645 174.366 10.0645 117.567C10.0645 60.7682 56.1089 14.7238 112.908 14.7238C169.706 14.7238 215.751 60.7682 215.751 117.567Z" fill="#7DAEFF"/>
<path d="M212.627 117.567C212.627 172.641 167.981 217.287 112.908 217.287C57.8337 217.287 13.1876 172.641 13.1876 117.567C13.1876 62.4931 57.8337 17.847 112.908 17.847C167.981 17.847 212.627 62.4931 212.627 117.567Z" fill="white"/>
<path d="M113.345 33.0169L165.316 123.032L113.345 75.1803L61.3745 123.032L113.345 33.0169Z" fill="#3B82F6"/>
<path d="M113.131 90.5733L156.856 132.327V199.886L113.131 161.826L69.4056 199.886V132.327L113.131 90.5733Z" fill="#0646AF"/>
<circle cx="35.4963" cy="51.7562" r="12.939" fill="#0854CF"/>
<circle cx="69.4056" cy="25.8781" r="12.939" fill="#0E55C9"/>
<circle cx="113.577" cy="12.939" r="12.939" fill="#0646AF"/>
<circle cx="157.748" cy="25.8781" r="12.939" fill="#0E55C9"/>
<circle cx="191.211" cy="56.2179" r="12.939" fill="#0854CF"/>
<circle cx="213.966" cy="99.4968" r="12.939" fill="#0458E0"/>
<circle cx="209.504" cy="151.253" r="12.939" fill="#0060FD"/>
<circle cx="183.626" cy="190.07" r="12.939" fill="#2477FF"/>
<circle cx="139.455" cy="215.948" r="12.939" fill="#3B82F6"/>
<circle cx="85.4679" cy="215.948" r="12.939" fill="#3B82F6"/>
<circle cx="37.7271" cy="186.947" r="12.939" fill="#2477FF"/>
<circle cx="12.939" cy="144.822" r="12.939" fill="#0060FD"/>
<circle cx="12.939" cy="94.6845" r="12.939" fill="#0458E0"/>
</svg>
